<?xml version="1.0" standalone="no"?><!DOCTYPE svg PUBLIC "-//W3C//DTD SVG 1.1//EN" "http://www.w3.org/Graphics/SVG/1.1/DTD/svg11.dtd"><svg class="icon" width="200px" height="200.00px" viewBox="0 0 1024 1024" version="1.1" xmlns="http://www.w3.org/2000/svg"><path fill="#333333" d="M486.4 1024c-129.9456 0-252.0576-50.5856-343.9616-142.4384s-142.4384-214.016-142.4384-343.9104c0-129.9456 50.5856-252.0576 142.4384-343.9616s214.016-142.4896 343.9616-142.4896c129.9456 0 252.0576 50.5856 343.9616 142.4896s142.4384 214.016 142.4384 343.9616-50.5856 252.0576-142.4384 343.9104c-91.8528 91.8528-214.016 142.4384-343.9616 142.4384zM486.4 102.4c-239.9744 0-435.2 195.2256-435.2 435.2s195.2256 435.2 435.2 435.2 435.2-195.2256 435.2-435.2-195.2256-435.2-435.2-435.2zM332.8 409.6c-42.3424 0-76.8-34.4576-76.8-76.8s34.4576-76.8 76.8-76.8 76.8 34.4576 76.8 76.8-34.4576 76.8-76.8 76.8zM332.8 307.2c-14.1312 0-25.6 11.4688-25.6 25.6s11.4688 25.6 25.6 25.6 25.6-11.4688 25.6-25.6-11.4688-25.6-25.6-25.6zM640 409.6c-42.3424 0-76.8-34.4576-76.8-76.8s34.4576-76.8 76.8-76.8 76.8 34.4576 76.8 76.8-34.4576 76.8-76.8 76.8zM640 307.2c-14.1312 0-25.6 11.4688-25.6 25.6s11.4688 25.6 25.6 25.6 25.6-11.4688 25.6-25.6-11.4688-25.6-25.6-25.6zM486.4 870.4c-183.5008 0-332.8-149.2992-332.8-332.8 0-14.1312 11.4688-25.6 25.6-25.6s25.6 11.4688 25.6 25.6c0 155.2896 126.3104 281.6 281.6 281.6s281.6-126.3104 281.6-281.6c0-14.1312 11.4688-25.6 25.6-25.6s25.6 11.4688 25.6 25.6c0 183.5008-149.2992 332.8-332.8 332.8z" /></svg>