<?xml version="1.0" standalone="no"?><!DOCTYPE svg PUBLIC "-//W3C//DTD SVG 1.1//EN" "http://www.w3.org/Graphics/SVG/1.1/DTD/svg11.dtd"><svg class="icon" width="200px" height="175.95px" viewBox="0 0 1164 1024" version="1.1" xmlns="http://www.w3.org/2000/svg"><path fill="#333333" d="M965.818182 0C985.111273 0 1000.727273 15.639273 1000.727273 34.909091c0 0 162.909091 151.272727 162.909091 477.090909s-162.909091 477.090909-162.909091 477.090909c0 19.293091-15.616 34.909091-34.909091 34.909091S930.909091 1008.384 930.909091 989.090909c0 0 162.909091-151.272727 162.909091-477.090909S930.909091 34.909091 930.909091 34.909091C930.909091 15.639273 946.525091 0 965.818182 0zM640 279.272727c19.293091 0 34.909091 15.639273 34.909091 34.909091 0 0 69.818182 46.545455 69.818182 197.818182s-69.818182 197.818182-69.818182 197.818182c0 19.269818-15.616 34.909091-34.909091 34.909091S605.090909 729.088 605.090909 709.818182c0 0 69.818182-46.545455 69.818182-197.818182s-69.818182-197.818182-69.818182-197.818182C605.090909 294.912 620.706909 279.272727 640 279.272727zM802.909091 139.636364C822.202182 139.636364 837.818182 155.275636 837.818182 174.545455c0 0 116.363636 104.727273 116.363636 337.454545s-116.363636 337.454545-116.363636 337.454545c0 19.293091-15.616 34.909091-34.909091 34.909091S768 868.747636 768 849.454545c0 0 116.363636-104.727273 116.363636-337.454545S768 174.545455 768 174.545455C768 155.275636 783.616 139.636364 802.909091 139.636364zM209.454545 674.909091 0 674.909091 0 372.363636l209.454545 0 279.272727-209.454545 0 721.454545L209.454545 674.909091zM442.181818 256l-209.454545 162.909091L46.545455 418.909091l0 209.454545 186.181818 0 209.454545 162.909091L442.181818 256zM965.818182 0C985.111273 0 1000.727273 15.639273 1000.727273 34.909091c0 0 162.909091 151.272727 162.909091 477.090909s-162.909091 477.090909-162.909091 477.090909c0 19.293091-15.616 34.909091-34.909091 34.909091S930.909091 1008.384 930.909091 989.090909c0 0 162.909091-151.272727 162.909091-477.090909S930.909091 34.909091 930.909091 34.909091C930.909091 15.639273 946.525091 0 965.818182 0z" /></svg>